<?xml version="1.0" standalone="no"?>
<!DOCTYPE svg PUBLIC "-//W3C//DTD SVG 20010904//EN"
 "http://www.w3.org/TR/2001/REC-SVG-20010904/DTD/svg10.dtd">
<svg version="1.0" xmlns="http://www.w3.org/2000/svg"
 width="1108.000000pt" height="1108.000000pt" viewBox="0 0 1108.000000 1108.000000"
 preserveAspectRatio="xMidYMid meet">
<metadata>
Created by potrace 1.14, written by Peter Selinger 2001-2017
</metadata>
<g transform="translate(0.000000,1108.000000) scale(0.100000,-0.100000)"
fill="#000000" stroke="none">
<path d="M5070 10970 l-2365 -6 -110 -22 c-135 -26 -275 -72 -378 -124 -43
-21 -83 -36 -89 -32 -7 5 -8 2 -3 -6 6 -10 4 -12 -8 -7 -9 3 -19 1 -23 -5 -5
-7 -2 -8 7 -4 8 4 5 1 -5 -8 -10 -8 -23 -13 -27 -10 -5 3 -9 0 -9 -6 0 -6 -5
-8 -12 -4 -7 4 -8 3 -4 -4 8 -13 -47 -45 -59 -34 -5 4 -5 1 -1 -5 7 -12 -5
-18 -27 -14 -5 1 -6 -2 -4 -6 5 -8 -15 -28 -83 -81 -19 -15 -30 -20 -25 -12 8
14 -22 -14 -110 -103 -22 -22 -33 -36 -25 -32 8 4 -5 -11 -29 -34 -24 -22 -40
-41 -36 -41 5 0 -1 -8 -11 -18 -10 -9 -26 -29 -34 -43 -8 -15 -36 -62 -63
-105 -57 -95 -102 -200 -127 -300 -42 -162 -43 -262 -43 -4229 0 -3739 5
-4384 33 -4505 6 -25 12 -52 13 -60 11 -59 20 -96 26 -105 3 -5 6 -12 6 -15 5
-34 19 -70 26 -70 6 0 8 -4 5 -9 -7 -10 18 -74 25 -67 3 3 6 -5 6 -16 1 -12
12 -35 23 -51 12 -16 19 -31 17 -34 -3 -2 3 -13 14 -24 11 -11 17 -24 14 -29
-3 -5 5 -16 17 -24 12 -9 19 -16 16 -16 -4 0 4 -12 17 -26 14 -15 25 -31 25
-35 0 -5 4 -9 10 -9 5 0 45 -35 87 -78 222 -222 438 -339 711 -387 76 -13 462
-15 3107 -15 3283 -1 3071 -4 3252 51 76 24 207 91 308 157 70 46 315 280 315
301 0 7 29 60 64 119 75 125 148 276 151 312 4 54 40 195 52 203 9 5 12 437
12 1895 0 1038 2 2792 5 3897 4 2174 -1 2590 -33 2745 -54 262 -161 481 -330
677 -33 40 -61 78 -61 86 0 8 -15 25 -34 38 -19 13 -32 28 -29 33 3 5 2 6 -4
3 -5 -3 -53 27 -107 67 -204 153 -451 247 -727 276 -139 15 -520 16 -3329 10z"/>
</g>
</svg>
